<?xml version="1.0" standalone="no"?>
<!DOCTYPE svg PUBLIC "-//W3C//DTD SVG 20010904//EN"
 "http://www.w3.org/TR/2001/REC-SVG-20010904/DTD/svg10.dtd">
<svg version="1.0" xmlns="http://www.w3.org/2000/svg"
 width="700.000000pt" height="700.000000pt" viewBox="0 0 700.000000 700.000000"
 preserveAspectRatio="xMidYMid meet">
<metadata>
Created by potrace 1.14, written by Peter Selinger 2001-2017
</metadata>
<g transform="translate(0.000000,700.000000) scale(0.100000,-0.100000)"
fill="#000000" stroke="none">
<path d="M430 5904 c-242 -50 -427 -286 -415 -531 4 -92 15 -133 53 -213 62
-126 192 -239 315 -272 l47 -12 0 -273 0 -273 527 -2 527 -3 1 -622 0 -623
-522 0 -523 0 0 -229 0 -230 -56 -16 c-133 -39 -264 -147 -323 -268 -178 -366
92 -780 497 -761 201 10 393 148 462 332 56 149 43 314 -36 457 -57 104 -208
220 -312 241 l-32 7 0 133 0 134 422 -2 422 -3 1 -585 0 -585 2043 0 2042 -1
0 958 0 958 179 0 179 0 13 -37 c24 -74 65 -138 129 -203 276 -277 738 -169
867 203 131 376 -209 760 -604 683 -189 -37 -362 -204 -404 -391 l-12 -55
-174 0 -173 0 0 955 c0 903 -1 955 -17 955 -20 1 -3963 1 -4029 0 l-40 0 1
-582 c0 -321 -1 -591 -3 -600 -4 -17 -33 -18 -428 -18 l-424 0 2 172 c3 167 4
171 25 174 49 8 136 48 191 88 186 137 263 376 191 594 -82 248 -348 399 -609
346z m4893 -403 c16 -1 17 -93 17 -1784 l0 -1783 -1812 0 -1813 1 -1 1782 -1
1782 21 3 c17 2 3530 1 3589 -1z"/>
<path d="M3390 5162 c-63 -5 -174 -34 -236 -63 -93 -43 -170 -105 -233 -189
-14 -19 -28 -37 -32 -40 -12 -11 -52 -103 -64 -150 -7 -28 -13 -91 -13 -141 0
-166 62 -298 245 -515 l43 -52 -101 -56 c-369 -207 -536 -458 -516 -775 20
-304 249 -588 547 -675 238 -70 524 -39 737 79 70 40 188 132 247 193 l38 40
67 -71 c100 -108 186 -186 263 -244 l71 -53 19 23 c11 12 29 33 41 47 12 14
52 61 89 105 l66 81 -71 56 c-104 83 -206 184 -299 298 l-36 45 39 65 c21 36
58 112 83 170 47 111 112 317 103 327 -7 6 -320 73 -325 69 -1 -2 -11 -37 -22
-79 -11 -42 -30 -103 -42 -134 -12 -32 -23 -60 -23 -63 0 -3 -10 -22 -21 -43
l-20 -39 -100 128 c-54 70 -159 203 -231 297 l-132 169 79 48 c153 92 268 200
335 315 90 152 98 345 23 505 -101 214 -349 343 -618 322z m189 -297 c115 -63
168 -176 149 -318 -16 -122 -80 -206 -237 -312 l-85 -57 -43 48 c-83 93 -164
196 -185 237 -87 169 -24 349 147 417 75 30 183 23 254 -15z m-168 -1245 c68
-85 126 -157 129 -160 5 -4 278 -345 303 -377 18 -24 -97 -150 -201 -219 -118
-79 -233 -114 -357 -110 -142 6 -238 52 -321 154 -126 154 -168 331 -113 477
51 138 136 230 328 359 68 45 87 54 96 44 7 -7 68 -83 136 -168z"/>
</g>
</svg>
