<svg xmlns="http://www.w3.org/2000/svg" xmlns:xlink="http://www.w3.org/1999/xlink" width="700px" height="700px" viewBox="0 0 700 700" preserveAspectRatio="xMinYMin meet" ><rect id="svgEditorBackground" x="0" y="0" width="700" height="700" style="fill: none; stroke: none;"/><path d="M551,328h80" style="fill:none;stroke:black;stroke-width:20px;" id="e3_pathH"/><path d="M40,175v62" style="fill:none;stroke:black;stroke-width:20px;" id="e2_pathV" transform="matrix(1 0 0 1 13 30)"/><path d="M41,362v62" style="fill:none;stroke:black;stroke-width:20px;" id="e7_pathV" transform="matrix(1 0 0 1 13 30)"/><rect x="196.108170" y="179.984985" style="fill:#D9D9D9;stroke:black;stroke-width:20px;" id="e1_rectangle" width="336.000000" height="331.000000" transform="matrix(1.14757 0 0 1.14757 -65.2122 -68.2601)"/><circle id="e2_circle" cx="555.251709" cy="306.563690" style="fill:gray;stroke:blue;stroke-width:10px;" r="17.459999" transform="matrix(2.34522 0.00258608 -0.00258608 2.34522 -1247.41 -559.385)"/><path d="M45,402h104Z" style="fill:none;stroke:black;stroke-width:20px;" id="e2_pathH"/><path d="M57,257h97" style="fill:none;stroke:black;stroke-width:20px;" id="e1_pathH"/><text style="fill:black;font-family:Arial;font-size:48px;" x="253" y="239" id="e8_texte" transform="matrix(7.58781 0 0 7.58781 -1687.36 -1364.71)">&amp;</text><circle id="e3_circle" cx="554.975525" cy="446.853912" style="fill:gray;stroke:blue;stroke-width:10px;" r="17.459999" transform="matrix(2.34522 0.00258608 -0.00258608 2.34522 -1247.41 -559.385)"/><circle id="e1_circle" cx="806.898682" cy="376.220520" style="fill:red;stroke:blue;stroke-width:10px;" r="17.459999" transform="matrix(2.34522 0.00258608 -0.00258608 2.34522 -1247.41 -559.385)"/></svg>